<?xml version="1.0" standalone="no"?>
<!DOCTYPE svg PUBLIC "-//W3C//DTD SVG 20010904//EN"
 "http://www.w3.org/TR/2001/REC-SVG-20010904/DTD/svg10.dtd">
<svg version="1.0" xmlns="http://www.w3.org/2000/svg"
 width="580.000000pt" height="386.000000pt" viewBox="0 0 580.000000 386.000000"
 preserveAspectRatio="xMidYMid meet">

<g transform="translate(0.000000,386.000000) scale(0.100000,-0.100000)"
fill="#000000" stroke="none">
<path d="M1758 2559 c-20 -6 -53 -26 -72 -45 -65 -63 -66 -74 -66 -661 l0
-523 170 0 170 0 0 325 c0 179 3 325 8 325 4 -1 117 -140 252 -311 135 -170
259 -319 276 -329 67 -42 173 -35 234 17 17 14 41 44 53 67 22 41 22 46 25
584 l3 542 -175 0 -176 0 -2 -325 -3 -325 -45 57 c-127 165 -436 550 -449 561
-54 43 -135 60 -203 41z"/>
<path d="M3350 2539 c-264 -34 -406 -200 -369 -431 12 -75 36 -122 86 -170 94
-89 168 -108 464 -116 209 -6 239 -9 257 -25 39 -35 32 -115 -12 -140 -15 -8
-106 -13 -313 -15 l-292 -3 -113 -145 c-62 -79 -114 -149 -116 -154 -5 -14
755 -13 852 1 195 27 311 104 363 241 10 28 16 77 17 138 1 114 -23 179 -86
236 -90 81 -191 104 -458 104 -202 0 -253 7 -276 37 -21 28 -17 87 7 109 19
17 43 19 280 24 212 4 261 8 272 20 17 19 174 223 205 268 l23 32 -363 -1
c-200 -1 -392 -5 -428 -10z"/>
</g>
</svg>
